<?xml version="1.0" standalone="no"?>
<!DOCTYPE svg PUBLIC "-//W3C//DTD SVG 20010904//EN"
 "http://www.w3.org/TR/2001/REC-SVG-20010904/DTD/svg10.dtd">
<svg version="1.0" xmlns="http://www.w3.org/2000/svg"
 width="512.000000pt" height="512.000000pt" viewBox="0 0 512.000000 512.000000"
 preserveAspectRatio="xMidYMid meet">
<metadata>
Created by potrace 1.14, written by Peter Selinger 2001-2017
</metadata>
<g transform="translate(0.000000,512.000000) scale(0.100000,-0.100000)"
fill="#000000" stroke="none">
<path d="M2800 5105 c-118 -30 -218 -90 -295 -178 -126 -145 -174 -321 -138
-501 31 -149 116 -259 252 -323 62 -29 87 -35 155 -38 108 -5 165 7 261 55
116 58 219 164 272 280 49 106 64 270 36 377 -40 153 -146 268 -297 323 -48
18 -186 21 -246 5z"/>
<path d="M3465 4356 c-79 -25 -138 -77 -183 -161 -22 -42 -27 -63 -27 -130 0
-70 4 -86 28 -127 67 -115 215 -135 335 -47 141 104 172 311 62 418 -58 56
-133 73 -215 47z"/>
<path d="M3815 3931 c-165 -76 -208 -314 -72 -408 55 -38 152 -40 212 -4 84
52 127 121 133 218 5 80 -22 142 -80 181 -52 34 -135 40 -193 13z"/>
<path d="M2325 3856 c-203 -49 -347 -233 -420 -535 -31 -127 -37 -180 -40
-346 -4 -282 60 -545 184 -754 31 -52 38 -75 36 -103 -11 -106 -116 -205 -333
-313 -61 -30 -114 -55 -117 -55 -11 0 -352 -154 -415 -188 -276 -147 -440
-321 -514 -542 -107 -323 5 -682 275 -876 142 -102 271 -142 450 -139 165 3
276 36 414 123 92 58 161 126 248 242 100 135 218 256 578 591 457 428 628
596 818 804 45 50 101 115 124 145 23 30 67 87 98 125 99 122 151 233 177 380
13 73 6 286 -12 355 -75 287 -251 532 -509 708 -58 40 -108 72 -111 72 -3 0
-24 13 -48 29 -51 34 -172 100 -283 154 -235 115 -450 160 -600 123z"/>
<path d="M4137 3505 c-169 -43 -272 -266 -184 -397 80 -118 274 -61 354 102
82 168 -15 334 -170 295z"/>
<path d="M4302 3020 c-73 -17 -151 -115 -153 -192 -3 -67 2 -81 36 -115 31
-31 40 -34 82 -32 119 6 216 151 178 263 -13 38 -49 76 -71 76 -7 0 -18 2 -26
4 -7 2 -28 0 -46 -4z"/>
</g>
</svg>
